<mxfile host="app.diagrams.net" modified="2022-03-31T18:54:02.185Z" agent="5.0 (Windows)" etag="y3WYQcQwyRKeAh6fuBlZ" version="17.4.0" type="github">
  <diagram id="hBLwWjvUMdCgp11ASnjh" name="Page-1">
    <mxGraphModel dx="1157" dy="650" grid="1" gridSize="10" guides="1" tooltips="1" connect="1" arrows="1" fold="1" page="1" pageScale="1" pageWidth="827" pageHeight="1169" math="0" shadow="0">
      <root>
        <mxCell id="0" />
        <mxCell id="1" parent="0" />
        <mxCell id="CAQx4H5joCFlS9i_-s96-3" value="" style="aspect=fixed;html=1;points=[];align=center;image;fontSize=12;image=img/lib/azure2/other/Template_Specs.svg;rounded=1;" vertex="1" parent="1">
          <mxGeometry x="100" y="60" width="47.05" height="56.14" as="geometry" />
        </mxCell>
        <mxCell id="CAQx4H5joCFlS9i_-s96-4" value="&lt;b&gt;PACS&lt;/b&gt;" style="text;html=1;resizable=0;autosize=1;align=center;verticalAlign=middle;points=[];fillColor=none;strokeColor=none;rounded=0;" vertex="1" parent="1">
          <mxGeometry x="100" y="190" width="50" height="20" as="geometry" />
        </mxCell>
        <mxCell id="CAQx4H5joCFlS9i_-s96-16" value="" style="edgeStyle=none;rounded=1;orthogonalLoop=1;jettySize=auto;html=1;fontFamily=Times New Roman;entryX=0;entryY=0.437;entryDx=0;entryDy=0;entryPerimeter=0;" edge="1" parent="1" target="CAQx4H5joCFlS9i_-s96-5">
          <mxGeometry relative="1" as="geometry">
            <mxPoint x="150" y="90" as="sourcePoint" />
            <Array as="points">
              <mxPoint x="180" y="90" />
              <mxPoint x="180" y="120" />
            </Array>
          </mxGeometry>
        </mxCell>
        <mxCell id="CAQx4H5joCFlS9i_-s96-5" value="" style="aspect=fixed;html=1;points=[];align=center;image;fontSize=12;image=img/lib/azure2/compute/Virtual_Machine.svg;rounded=1;fontFamily=Times New Roman;" vertex="1" parent="1">
          <mxGeometry x="370" y="92" width="69" height="64" as="geometry" />
        </mxCell>
        <mxCell id="CAQx4H5joCFlS9i_-s96-6" value="&lt;b&gt;MEZZOW WEBCONNECT&lt;/b&gt;" style="text;html=1;resizable=0;autosize=1;align=center;verticalAlign=middle;points=[];fillColor=none;strokeColor=none;rounded=0;" vertex="1" parent="1">
          <mxGeometry x="329.5" y="156" width="150" height="20" as="geometry" />
        </mxCell>
        <mxCell id="CAQx4H5joCFlS9i_-s96-7" value="&lt;b&gt;MEZZOW STORAGE&lt;/b&gt;" style="text;html=1;resizable=0;autosize=1;align=center;verticalAlign=middle;points=[];fillColor=none;strokeColor=none;rounded=0;" vertex="1" parent="1">
          <mxGeometry x="587" y="156" width="130" height="20" as="geometry" />
        </mxCell>
        <mxCell id="CAQx4H5joCFlS9i_-s96-9" value="" style="aspect=fixed;html=1;points=[];align=center;image;fontSize=12;image=img/lib/azure2/storage/Import_Export_Jobs.svg;rounded=1;fontFamily=Times New Roman;" vertex="1" parent="1">
          <mxGeometry x="620" y="93" width="64" height="67" as="geometry" />
        </mxCell>
        <mxCell id="CAQx4H5joCFlS9i_-s96-12" value="" style="aspect=fixed;html=1;points=[];align=center;image;fontSize=12;image=img/lib/azure2/app_services/App_Service_Plans.svg;rounded=1;fontFamily=Times New Roman;" vertex="1" parent="1">
          <mxGeometry x="620" y="270" width="64" height="64" as="geometry" />
        </mxCell>
        <mxCell id="CAQx4H5joCFlS9i_-s96-19" value="" style="edgeStyle=orthogonalEdgeStyle;rounded=1;orthogonalLoop=1;jettySize=auto;html=1;fontFamily=Times New Roman;" edge="1" parent="1" source="CAQx4H5joCFlS9i_-s96-7" target="CAQx4H5joCFlS9i_-s96-12">
          <mxGeometry relative="1" as="geometry">
            <mxPoint x="600" y="284" as="sourcePoint" />
            <mxPoint x="440" y="300" as="targetPoint" />
            <Array as="points">
              <mxPoint x="652" y="300" />
            </Array>
          </mxGeometry>
        </mxCell>
        <mxCell id="CAQx4H5joCFlS9i_-s96-57" value="3" style="edgeLabel;html=1;align=center;verticalAlign=middle;resizable=0;points=[];fontFamily=Times New Roman;" vertex="1" connectable="0" parent="CAQx4H5joCFlS9i_-s96-19">
          <mxGeometry x="-0.2414" relative="1" as="geometry">
            <mxPoint as="offset" />
          </mxGeometry>
        </mxCell>
        <mxCell id="CAQx4H5joCFlS9i_-s96-20" value="" style="edgeStyle=none;rounded=1;orthogonalLoop=1;jettySize=auto;html=1;fontFamily=Times New Roman;exitX=0.939;exitY=0.47;exitDx=0;exitDy=0;exitPerimeter=0;" edge="1" parent="1">
          <mxGeometry relative="1" as="geometry">
            <mxPoint x="439.00300000000016" y="119.93999999999994" as="sourcePoint" />
            <mxPoint x="620" y="120" as="targetPoint" />
          </mxGeometry>
        </mxCell>
        <mxCell id="CAQx4H5joCFlS9i_-s96-59" value="2" style="edgeLabel;html=1;align=center;verticalAlign=middle;resizable=0;points=[];fontFamily=Times New Roman;" vertex="1" connectable="0" parent="CAQx4H5joCFlS9i_-s96-20">
          <mxGeometry x="-0.0807" y="1" relative="1" as="geometry">
            <mxPoint as="offset" />
          </mxGeometry>
        </mxCell>
        <mxCell id="CAQx4H5joCFlS9i_-s96-21" value="&lt;b&gt;MEZZOW WEB&lt;/b&gt;" style="text;html=1;resizable=0;autosize=1;align=center;verticalAlign=middle;points=[];fillColor=none;strokeColor=none;rounded=0;" vertex="1" parent="1">
          <mxGeometry x="602" y="334" width="100" height="20" as="geometry" />
        </mxCell>
        <mxCell id="CAQx4H5joCFlS9i_-s96-22" value="" style="image;html=1;image=img/lib/clip_art/people/Doctor_Man_Black_128x128.png;rounded=1;fontFamily=Times New Roman;" vertex="1" parent="1">
          <mxGeometry x="100" y="240" width="50" height="60" as="geometry" />
        </mxCell>
        <mxCell id="CAQx4H5joCFlS9i_-s96-24" value="" style="image;html=1;image=img/lib/clip_art/people/Doctor_Woman_128x128.png;rounded=1;fontFamily=Times New Roman;" vertex="1" parent="1">
          <mxGeometry x="100" y="310" width="50" height="60" as="geometry" />
        </mxCell>
        <mxCell id="CAQx4H5joCFlS9i_-s96-25" value="&lt;b&gt;MÉDICO 1&lt;/b&gt;" style="text;html=1;resizable=0;autosize=1;align=center;verticalAlign=middle;points=[];fillColor=none;strokeColor=none;rounded=0;" vertex="1" parent="1">
          <mxGeometry x="90" y="292" width="70" height="20" as="geometry" />
        </mxCell>
        <mxCell id="CAQx4H5joCFlS9i_-s96-27" value="&lt;b&gt;MÉDICO 2&lt;br&gt;&lt;/b&gt;" style="text;html=1;resizable=0;autosize=1;align=center;verticalAlign=middle;points=[];fillColor=none;strokeColor=none;rounded=0;" vertex="1" parent="1">
          <mxGeometry x="90" y="360" width="70" height="20" as="geometry" />
        </mxCell>
        <mxCell id="CAQx4H5joCFlS9i_-s96-28" value="&lt;b&gt;HIS&lt;/b&gt;" style="text;html=1;resizable=0;autosize=1;align=center;verticalAlign=middle;points=[];fillColor=none;strokeColor=none;rounded=0;" vertex="1" parent="1">
          <mxGeometry x="108.52" y="114" width="30" height="20" as="geometry" />
        </mxCell>
        <mxCell id="CAQx4H5joCFlS9i_-s96-29" value="" style="aspect=fixed;html=1;points=[];align=center;image;fontSize=12;image=img/lib/azure2/compute/Shared_Image_Galleries.svg;rounded=1;fontFamily=Times New Roman;" vertex="1" parent="1">
          <mxGeometry x="102" y="142" width="48" height="48" as="geometry" />
        </mxCell>
        <mxCell id="CAQx4H5joCFlS9i_-s96-30" value="" style="edgeStyle=none;rounded=1;orthogonalLoop=1;jettySize=auto;html=1;fontFamily=Times New Roman;fontStyle=1;entryX=0;entryY=0.5;entryDx=0;entryDy=0;" edge="1" parent="1" target="CAQx4H5joCFlS9i_-s96-32">
          <mxGeometry relative="1" as="geometry">
            <mxPoint x="150" y="350" as="sourcePoint" />
            <mxPoint x="380" y="300" as="targetPoint" />
            <Array as="points">
              <mxPoint x="180" y="350" />
              <mxPoint x="180" y="300" />
            </Array>
          </mxGeometry>
        </mxCell>
        <mxCell id="CAQx4H5joCFlS9i_-s96-31" value="" style="edgeStyle=none;rounded=1;orthogonalLoop=1;jettySize=auto;html=1;fontFamily=Times New Roman;" edge="1" parent="1" target="CAQx4H5joCFlS9i_-s96-32">
          <mxGeometry relative="1" as="geometry">
            <mxPoint x="150" y="270" as="sourcePoint" />
            <mxPoint x="250" y="300" as="targetPoint" />
            <Array as="points">
              <mxPoint x="180" y="270" />
              <mxPoint x="180" y="300" />
            </Array>
          </mxGeometry>
        </mxCell>
        <mxCell id="CAQx4H5joCFlS9i_-s96-32" value="" style="shape=image;html=1;verticalAlign=top;verticalLabelPosition=bottom;labelBackgroundColor=#ffffff;imageAspect=0;aspect=fixed;image=https://cdn3.iconfinder.com/data/icons/clinical-3/96/medical-history-128.png;rounded=1;fontFamily=Times New Roman;" vertex="1" parent="1">
          <mxGeometry x="382" y="279.5" width="45" height="45" as="geometry" />
        </mxCell>
        <mxCell id="CAQx4H5joCFlS9i_-s96-33" value="" style="edgeStyle=none;rounded=1;orthogonalLoop=1;jettySize=auto;html=1;fontFamily=Times New Roman;exitX=1;exitY=0.5;exitDx=0;exitDy=0;" edge="1" parent="1" source="CAQx4H5joCFlS9i_-s96-32">
          <mxGeometry relative="1" as="geometry">
            <mxPoint x="300" y="270" as="sourcePoint" />
            <mxPoint x="620" y="302" as="targetPoint" />
            <Array as="points" />
          </mxGeometry>
        </mxCell>
        <mxCell id="CAQx4H5joCFlS9i_-s96-34" value="" style="edgeStyle=none;rounded=1;orthogonalLoop=1;jettySize=auto;html=1;fontFamily=Times New Roman;fontStyle=1" edge="1" parent="1">
          <mxGeometry relative="1" as="geometry">
            <mxPoint x="150" y="166.14" as="sourcePoint" />
            <mxPoint x="370" y="120" as="targetPoint" />
            <Array as="points">
              <mxPoint x="180" y="166.14" />
              <mxPoint x="180" y="120" />
            </Array>
          </mxGeometry>
        </mxCell>
        <mxCell id="CAQx4H5joCFlS9i_-s96-60" value="1" style="edgeLabel;html=1;align=center;verticalAlign=middle;resizable=0;points=[];fontFamily=Times New Roman;" vertex="1" connectable="0" parent="CAQx4H5joCFlS9i_-s96-34">
          <mxGeometry x="0.2166" relative="1" as="geometry">
            <mxPoint as="offset" />
          </mxGeometry>
        </mxCell>
        <mxCell id="CAQx4H5joCFlS9i_-s96-36" value="" style="edgeStyle=none;rounded=1;orthogonalLoop=1;jettySize=auto;html=1;fontFamily=Times New Roman;entryX=1;entryY=0.5;entryDx=0;entryDy=0;exitX=0.011;exitY=0.504;exitDx=0;exitDy=0;exitPerimeter=0;" edge="1" parent="1" source="CAQx4H5joCFlS9i_-s96-12" target="CAQx4H5joCFlS9i_-s96-32">
          <mxGeometry relative="1" as="geometry">
            <mxPoint x="620" y="300" as="sourcePoint" />
            <mxPoint x="466.27" y="300" as="targetPoint" />
            <Array as="points" />
          </mxGeometry>
        </mxCell>
        <mxCell id="CAQx4H5joCFlS9i_-s96-58" value="4" style="edgeLabel;html=1;align=center;verticalAlign=middle;resizable=0;points=[];fontFamily=Times New Roman;" vertex="1" connectable="0" parent="CAQx4H5joCFlS9i_-s96-36">
          <mxGeometry x="0.2367" y="-1" relative="1" as="geometry">
            <mxPoint x="29" y="-1" as="offset" />
          </mxGeometry>
        </mxCell>
        <mxCell id="CAQx4H5joCFlS9i_-s96-37" value="" style="edgeStyle=none;rounded=1;orthogonalLoop=1;jettySize=auto;html=1;fontFamily=Times New Roman;entryX=1;entryY=0.5;entryDx=0;entryDy=0;" edge="1" parent="1" target="CAQx4H5joCFlS9i_-s96-22">
          <mxGeometry relative="1" as="geometry">
            <mxPoint x="370" y="302.05" as="sourcePoint" />
            <mxPoint x="177.135" y="301.71" as="targetPoint" />
            <Array as="points">
              <mxPoint x="180" y="300" />
              <mxPoint x="180" y="270" />
            </Array>
          </mxGeometry>
        </mxCell>
        <mxCell id="CAQx4H5joCFlS9i_-s96-38" value="" style="edgeStyle=none;rounded=1;orthogonalLoop=1;jettySize=auto;html=1;fontFamily=Times New Roman;" edge="1" parent="1">
          <mxGeometry relative="1" as="geometry">
            <mxPoint x="376.5" y="302.04999999999995" as="sourcePoint" />
            <mxPoint x="150" y="350" as="targetPoint" />
            <Array as="points">
              <mxPoint x="180" y="300" />
              <mxPoint x="180" y="350" />
            </Array>
          </mxGeometry>
        </mxCell>
        <mxCell id="CAQx4H5joCFlS9i_-s96-39" value="" style="sketch=0;html=1;aspect=fixed;strokeColor=none;shadow=0;align=center;verticalAlign=top;fillColor=#3B8DF1;shape=mxgraph.gcp2.cloud_computer;rounded=1;fontFamily=Times New Roman;" vertex="1" parent="1">
          <mxGeometry x="622.25" y="450" width="59.5" height="52.36" as="geometry" />
        </mxCell>
        <mxCell id="CAQx4H5joCFlS9i_-s96-41" value="" style="edgeStyle=orthogonalEdgeStyle;rounded=1;orthogonalLoop=1;jettySize=auto;html=1;fontFamily=Times New Roman;entryX=0.5;entryY=0;entryDx=0;entryDy=0;entryPerimeter=0;" edge="1" parent="1" target="CAQx4H5joCFlS9i_-s96-39">
          <mxGeometry relative="1" as="geometry">
            <mxPoint x="651.6899999999997" y="350" as="sourcePoint" />
            <mxPoint x="652" y="440" as="targetPoint" />
            <Array as="points">
              <mxPoint x="652" y="410" />
              <mxPoint x="652" y="410" />
            </Array>
          </mxGeometry>
        </mxCell>
        <mxCell id="CAQx4H5joCFlS9i_-s96-63" value="5" style="edgeLabel;html=1;align=center;verticalAlign=middle;resizable=0;points=[];fontFamily=Times New Roman;" vertex="1" connectable="0" parent="CAQx4H5joCFlS9i_-s96-41">
          <mxGeometry x="-0.1531" relative="1" as="geometry">
            <mxPoint as="offset" />
          </mxGeometry>
        </mxCell>
        <mxCell id="CAQx4H5joCFlS9i_-s96-42" value="&lt;b&gt;MEZZOW QR&lt;br&gt;&lt;/b&gt;" style="text;html=1;resizable=0;autosize=1;align=center;verticalAlign=middle;points=[];fillColor=none;strokeColor=none;rounded=0;" vertex="1" parent="1">
          <mxGeometry x="607" y="502.36" width="90" height="20" as="geometry" />
        </mxCell>
        <mxCell id="CAQx4H5joCFlS9i_-s96-44" value="" style="shape=image;html=1;verticalAlign=top;verticalLabelPosition=bottom;labelBackgroundColor=#ffffff;imageAspect=0;aspect=fixed;image=https://cdn1.iconfinder.com/data/icons/nuvola2/128x128/apps/kuser.png;rounded=1;fontFamily=Times New Roman;" vertex="1" parent="1">
          <mxGeometry x="96" y="442.36" width="60" height="60" as="geometry" />
        </mxCell>
        <mxCell id="CAQx4H5joCFlS9i_-s96-46" value="" style="edgeStyle=none;rounded=1;orthogonalLoop=1;jettySize=auto;html=1;fontFamily=Times New Roman;" edge="1" parent="1">
          <mxGeometry relative="1" as="geometry">
            <mxPoint x="440" y="470" as="sourcePoint" />
            <mxPoint x="620" y="470" as="targetPoint" />
          </mxGeometry>
        </mxCell>
        <mxCell id="CAQx4H5joCFlS9i_-s96-49" style="edgeStyle=none;rounded=1;orthogonalLoop=1;jettySize=auto;html=1;entryX=1;entryY=0;entryDx=0;entryDy=0;fontFamily=Times New Roman;" edge="1" parent="1">
          <mxGeometry relative="1" as="geometry">
            <mxPoint x="419.5" y="460.5" as="sourcePoint" />
            <mxPoint x="419.5" y="460.5" as="targetPoint" />
          </mxGeometry>
        </mxCell>
        <mxCell id="CAQx4H5joCFlS9i_-s96-53" value="&lt;b&gt;PACIENTE&lt;br&gt;&lt;/b&gt;" style="text;html=1;resizable=0;autosize=1;align=center;verticalAlign=middle;points=[];fillColor=none;strokeColor=none;rounded=0;" vertex="1" parent="1">
          <mxGeometry x="88.52000000000001" y="502.36" width="70" height="20" as="geometry" />
        </mxCell>
        <mxCell id="CAQx4H5joCFlS9i_-s96-64" value="&lt;b&gt;LAUDO&lt;/b&gt;" style="text;html=1;resizable=0;autosize=1;align=center;verticalAlign=middle;points=[];fillColor=none;strokeColor=none;rounded=0;" vertex="1" parent="1">
          <mxGeometry x="374.5" y="330" width="60" height="20" as="geometry" />
        </mxCell>
        <mxCell id="CAQx4H5joCFlS9i_-s96-65" value="" style="shape=image;html=1;verticalAlign=top;verticalLabelPosition=bottom;labelBackgroundColor=#ffffff;imageAspect=0;aspect=fixed;image=https://cdn0.iconfinder.com/data/icons/ie_Shine/128/shine_9.png;rounded=1;fontFamily=Times New Roman;" vertex="1" parent="1">
          <mxGeometry x="388.32" y="456.18" width="32.36" height="32.36" as="geometry" />
        </mxCell>
        <mxCell id="CAQx4H5joCFlS9i_-s96-66" value="" style="verticalLabelPosition=bottom;html=1;verticalAlign=top;align=center;strokeColor=none;fillColor=#00BEF2;shape=mxgraph.azure.mobile;pointerEvents=1;rounded=1;fontFamily=Times New Roman;" vertex="1" parent="1">
          <mxGeometry x="394.99999999999994" y="495" width="19" height="27.36" as="geometry" />
        </mxCell>
        <mxCell id="CAQx4H5joCFlS9i_-s96-67" value="" style="sketch=0;aspect=fixed;pointerEvents=1;shadow=0;dashed=0;html=1;strokeColor=none;labelPosition=center;verticalLabelPosition=bottom;verticalAlign=top;align=center;fillColor=#00188D;shape=mxgraph.azure.computer;rounded=1;fontFamily=Times New Roman;" vertex="1" parent="1">
          <mxGeometry x="390.59" y="424.96" width="27.82" height="25.04" as="geometry" />
        </mxCell>
        <mxCell id="CAQx4H5joCFlS9i_-s96-68" value="" style="edgeStyle=none;rounded=1;orthogonalLoop=1;jettySize=auto;html=1;fontFamily=Times New Roman;" edge="1" parent="1">
          <mxGeometry relative="1" as="geometry">
            <mxPoint x="620" y="470" as="sourcePoint" />
            <mxPoint x="430" y="470" as="targetPoint" />
            <Array as="points" />
          </mxGeometry>
        </mxCell>
        <mxCell id="CAQx4H5joCFlS9i_-s96-70" value="6" style="edgeLabel;html=1;align=center;verticalAlign=middle;resizable=0;points=[];fontFamily=Times New Roman;" vertex="1" connectable="0" parent="CAQx4H5joCFlS9i_-s96-68">
          <mxGeometry x="-0.0475" y="-1" relative="1" as="geometry">
            <mxPoint as="offset" />
          </mxGeometry>
        </mxCell>
        <mxCell id="CAQx4H5joCFlS9i_-s96-71" value="" style="edgeStyle=none;rounded=1;orthogonalLoop=1;jettySize=auto;html=1;fontFamily=Times New Roman;exitX=1.023;exitY=0.461;exitDx=0;exitDy=0;exitPerimeter=0;" edge="1" parent="1" source="CAQx4H5joCFlS9i_-s96-44">
          <mxGeometry relative="1" as="geometry">
            <mxPoint x="203.52300000000017" y="469.99999999999994" as="sourcePoint" />
            <mxPoint x="380" y="470" as="targetPoint" />
          </mxGeometry>
        </mxCell>
      </root>
    </mxGraphModel>
  </diagram>
</mxfile>
